<?xml version="1.0" standalone="no"?>
<!DOCTYPE svg PUBLIC "-//W3C//DTD SVG 20010904//EN"
 "http://www.w3.org/TR/2001/REC-SVG-20010904/DTD/svg10.dtd">
<svg version="1.0" xmlns="http://www.w3.org/2000/svg"
 width="25.000000pt" height="25.000000pt" viewBox="0 0 25.000000 25.000000"
 preserveAspectRatio="xMidYMid meet">

<g transform="translate(0.000000,25.000000) scale(0.100000,-0.100000)"
fill="#000000" stroke="none">
<path d="M22 233 c25 -6 49 -101 34 -135 -13 -30 3 -38 80 -38 98 0 96 18 -3
23 l-78 3 76 2 c86 2 95 8 105 70 l7 42 -39 -1 c-37 -1 -37 -2 -9 -8 17 -3 29
-10 29 -14 -12 -70 -9 -67 -77 -67 -64 0 -65 0 -71 31 -9 47 -9 47 27 52 l32
4 -36 1 c-27 2 -38 7 -42 22 -3 13 -13 20 -29 19 -16 -1 -18 -3 -6 -6z"/>
<path d="M137 188 c-5 -35 7 -59 22 -43 10 11 3 75 -9 75 -4 0 -10 -15 -13
-32z"/>
<path d="M72 33 c4 -22 43 -25 43 -3 0 8 -11 16 -23 18 -19 3 -23 0 -20 -15z"/>
<path d="M160 30 c0 -13 7 -20 20 -20 13 0 20 7 20 20 0 13 -7 20 -20 20 -13
0 -20 -7 -20 -20z m30 6 c0 -3 -4 -8 -10 -11 -5 -3 -10 -1 -10 4 0 6 5 11 10
11 6 0 10 -2 10 -4z"/>
</g>
</svg>
