<?xml version="1.0" standalone="no"?>
<!DOCTYPE svg PUBLIC "-//W3C//DTD SVG 20010904//EN"
 "http://www.w3.org/TR/2001/REC-SVG-20010904/DTD/svg10.dtd">
<svg version="1.0" xmlns="http://www.w3.org/2000/svg"
 width="606.000000pt" height="427.000000pt" viewBox="0 0 606.000000 427.000000"
 preserveAspectRatio="xMidYMid meet">

<g transform="translate(0.000000,427.000000) scale(0.100000,-0.100000)"
fill="#000000" stroke="none">
<path d="M2759 3731 l-29 -29 0 -641 c0 -416 4 -642 10 -646 6 -3 10 -17 10
-31 0 -13 -4 -24 -10 -24 -6 0 -10 -27 -10 -60 0 -57 1 -60 24 -60 23 0 25 4
28 53 2 28 1 108 -2 177 -3 69 -3 343 0 610 l5 485 935 0 935 0 3 -1197 2
-1198 -940 0 -940 0 0 259 0 259 -25 4 -25 5 0 -369 0 -370 29 -29 29 -29 927
0 c1006 0 967 -2 993 55 9 20 12 353 12 1386 l0 1361 -29 29 -29 29 -937 0
-937 0 -29 -29z"/>
<path d="M1655 3237 c-42 -19 -95 -74 -113 -117 -10 -22 -17 -76 -19 -145 -2
-60 -6 -124 -9 -141 -3 -18 -1 -42 6 -54 9 -16 9 -25 1 -33 -6 -6 -11 -22 -11
-34 0 -13 -10 -37 -21 -53 -17 -22 -20 -37 -16 -64 3 -21 1 -38 -5 -42 -12 -8
-2 -164 11 -177 8 -8 14 21 27 138 3 28 7 59 9 70 2 11 4 24 4 28 1 5 5 6 10
2 5 -3 13 0 17 6 4 8 3 9 -4 5 -25 -15 -10 12 26 47 35 34 40 36 72 27 44 -13
130 -13 150 0 10 7 -10 10 -65 10 -113 0 -125 5 -125 46 0 20 11 51 26 73 17
26 29 64 36 113 7 50 25 102 55 166 25 50 48 92 52 92 14 0 108 -104 126 -139
13 -27 15 -47 10 -109 -4 -43 -14 -92 -21 -111 -14 -33 -14 -33 8 -19 41 27
60 77 55 143 -9 112 -36 204 -72 244 -32 35 -36 36 -112 39 -50 1 -89 -3 -108
-11z"/>
<path d="M3730 3210 l-25 -8 25 -1 c14 -1 39 -9 55 -17 17 -8 21 -11 10 -8
-11 4 -42 9 -70 11 l-50 5 75 -39 c81 -41 155 -96 165 -121 5 -13 2 -12 -15 3
-22 20 -20 29 -24 -107 -1 -30 22 -34 33 -5 5 13 16 27 24 30 21 8 32 105 17
151 -26 81 -135 133 -220 106z"/>
<path d="M3653 3118 c-30 -15 -36 -36 -12 -43 22 -7 149 14 149 25 0 9 -71 30
-96 29 -11 0 -29 -5 -41 -11z"/>
<path d="M1720 3080 c-12 -8 -10 -10 8 -10 13 0 20 4 17 10 -7 12 -6 12 -25 0z"/>
<path d="M1848 3073 c7 -3 16 -2 19 1 4 3 -2 6 -13 5 -11 0 -14 -3 -6 -6z"/>
<path d="M3645 3050 c-3 -5 3 -10 14 -10 12 0 21 5 21 10 0 6 -6 10 -14 10 -8
0 -18 -4 -21 -10z"/>
<path d="M3771 3056 c12 -10 60 -16 54 -6 -3 5 -18 10 -32 10 -15 0 -24 -2
-22 -4z"/>
<path d="M3646 3011 c-4 -5 3 -7 14 -4 23 6 26 13 6 13 -8 0 -17 -4 -20 -9z"/>
<path d="M1730 3000 c0 -5 5 -10 10 -10 6 0 10 5 10 10 0 6 -4 10 -10 10 -5 0
-10 -4 -10 -10z"/>
<path d="M1850 3000 c0 -5 5 -10 10 -10 6 0 10 5 10 10 0 6 -4 10 -10 10 -5 0
-10 -4 -10 -10z"/>
<path d="M3640 2965 c0 -8 5 -15 10 -15 6 0 10 7 10 15 0 8 -4 15 -10 15 -5 0
-10 -7 -10 -15z"/>
<path d="M3760 2970 c0 -5 5 -10 10 -10 6 0 10 5 10 10 0 6 -4 10 -10 10 -5 0
-10 -4 -10 -10z"/>
<path d="M3696 2943 c-6 -14 -5 -15 5 -6 7 7 10 15 7 18 -3 3 -9 -2 -12 -12z"/>
<path d="M1760 2901 c0 -10 19 -25 25 -20 1 2 -3 10 -11 17 -8 7 -14 8 -14 3z"/>
<path d="M3860 2674 c-64 -27 -136 -31 -160 -9 -28 25 -157 -30 -256 -109 -44
-36 -85 -70 -91 -78 -9 -10 -1 -30 34 -86 40 -63 48 -71 69 -66 l24 6 0 -150
0 -151 44 -6 c40 -6 304 19 315 31 3 2 15 43 27 90 12 47 24 87 26 89 2 2 53
-7 113 -21 61 -13 116 -24 123 -24 11 0 13 34 10 173 -4 191 -9 209 -66 246
-64 43 -146 91 -151 90 -3 -1 -31 -12 -61 -25z m-32 -271 c-15 -2 -42 -2 -60
0 -18 2 -6 4 27 4 33 0 48 -2 33 -4z"/>
<path d="M1608 2633 c7 -3 16 -2 19 1 4 3 -2 6 -13 5 -11 0 -14 -3 -6 -6z"/>
<path d="M1663 2604 c15 -15 27 -31 27 -37 0 -6 3 -8 6 -5 8 9 -24 55 -43 63
-9 3 -4 -6 10 -21z"/>
<path d="M1701 2534 c0 -11 3 -14 6 -6 3 7 2 16 -1 19 -3 4 -6 -2 -5 -13z"/>
<path d="M1911 2530 c-1 -3 6 -27 14 -54 12 -39 13 -57 3 -87 -6 -22 -15 -39
-20 -39 -5 0 -6 -5 -3 -10 4 -6 12 -4 22 6 22 21 22 119 0 159 -9 17 -16 28
-16 25z"/>
<path d="M1700 2495 c0 -9 -7 -30 -16 -47 -13 -26 -46 -216 -39 -226 7 -8 45
-9 50 -1 4 5 2 9 -3 9 -18 0 -20 26 -7 76 15 59 30 204 21 204 -3 0 -6 -7 -6
-15z"/>
<path d="M1993 2503 c9 -2 23 -2 30 0 6 3 -1 5 -18 5 -16 0 -22 -2 -12 -5z"/>
<path d="M2078 2503 c7 -3 16 -2 19 1 4 3 -2 6 -13 5 -11 0 -14 -3 -6 -6z"/>
<path d="M2111 2350 c-39 -44 -48 -60 -35 -60 21 0 116 98 108 111 -10 17 -21
9 -73 -51z"/>
<path d="M3054 2188 c26 -213 58 -457 62 -475 4 -20 11 -23 53 -23 l48 0 -27
118 c-107 455 -101 432 -122 432 -19 0 -20 -4 -14 -52z"/>
<path d="M4028 2100 c-16 -48 -43 -110 -60 -136 l-33 -49 -85 -3 c-66 -3 -303
11 -365 21 -5 1 -11 -9 -13 -23 -2 -13 -10 -33 -18 -44 -14 -21 -19 -82 -8
-110 5 -13 46 -15 301 -16 l295 -1 -6 73 c-4 44 -1 133 9 222 8 82 14 151 12
152 -1 1 -14 -37 -29 -86z"/>
<path d="M1945 2113 c-73 -6 -275 -56 -275 -68 0 -6 -16 -48 -35 -93 -45 -102
-50 -146 -70 -592 -9 -190 -19 -358 -22 -373 l-5 -28 259 3 258 3 48 36 c32
25 70 42 118 54 39 10 73 23 75 29 3 7 -56 235 -131 507 -74 272 -135 503
-135 512 0 11 -7 16 -22 15 -13 -1 -41 -3 -63 -5z"/>
<path d="M4212 1420 c0 -19 2 -27 5 -17 2 9 2 25 0 35 -3 9 -5 1 -5 -18z"/>
<path d="M3442 1410 c0 -14 2 -19 5 -12 2 6 2 18 0 25 -3 6 -5 1 -5 -13z"/>
<path d="M3550 1416 c0 -8 4 -17 9 -20 5 -4 7 3 4 14 -6 23 -13 26 -13 6z"/>
<path d="M3722 1410 c0 -14 2 -19 5 -12 2 6 2 18 0 25 -3 6 -5 1 -5 -13z"/>
<path d="M3880 1416 c0 -8 -8 -17 -17 -19 -14 -4 -12 -5 5 -6 16 -1 22 5 22
19 0 11 -2 20 -5 20 -3 0 -5 -6 -5 -14z"/>
<path d="M3900 1411 c0 -6 4 -13 10 -16 6 -3 7 1 4 9 -7 18 -14 21 -14 7z"/>
<path d="M3990 1411 c0 -6 4 -13 10 -16 6 -3 7 1 4 9 -7 18 -14 21 -14 7z"/>
<path d="M4088 1393 c7 -3 16 -2 19 1 4 3 -2 6 -13 5 -11 0 -14 -3 -6 -6z"/>
<path d="M1216 832 c-5 -8 61 -289 71 -301 2 -2 6 -2 9 2 7 7 -55 288 -66 300
-4 5 -10 4 -14 -1z"/>
<path d="M1670 297 c0 -10 20 -16 68 -20 104 -10 242 -8 242 3 0 6 -3 10 -7
11 -5 0 -44 2 -88 4 -44 3 -110 7 -147 10 -53 4 -68 2 -68 -8z"/>
</g>
</svg>
